<svg width="920" height="128" viewBox="0 0 920 128" fill="none" xmlns="http://www.w3.org/2000/svg">
  <rect x="1" y="1" width="918" height="126" rx="10" fill="#0D1117" stroke="#30363D"/>
  <rect x="1" y="1" width="4" height="126" rx="2" fill="#4EAA25"/>
  <path d="M30 31H44V45H30V31ZM33 34V42H41V34H33Z" fill="#58A6FF"/>
  <text x="58" y="44" font-family="Segoe UI, Arial, sans-serif" font-size="18" font-weight="650" fill="#58A6FF">AntiObfusHunter</text>
  <text x="30" y="75" font-family="Segoe UI, Arial, sans-serif" font-size="14" fill="#C9D1D9">Anti-ObfusHunter counter-measures against hACKCASCAC.</text>
  <rect x="30" y="94" width="50" height="22" rx="5" fill="#161B22" stroke="#30363D"/>
  <circle cx="45" cy="105" r="5" fill="#555555"/>
  <text x="58" y="110" font-family="Consolas, Fira Code, monospace" font-size="12" fill="#F0F6FC">C</text>
  <rect x="90" y="94" width="62" height="22" rx="5" fill="#161B22" stroke="#30363D"/>
  <circle cx="105" cy="105" r="5" fill="#F34B7D"/>
  <text x="118" y="110" font-family="Consolas, Fira Code, monospace" font-size="12" fill="#F0F6FC">C++</text>
  <rect x="162" y="94" width="76" height="22" rx="5" fill="#161B22" stroke="#30363D"/>
  <circle cx="177" cy="105" r="5" fill="#3776AB"/>
  <text x="190" y="110" font-family="Consolas, Fira Code, monospace" font-size="12" fill="#F0F6FC">Python</text>
  <rect x="248" y="94" width="92" height="22" rx="5" fill="#161B22" stroke="#30363D"/>
  <circle cx="263" cy="105" r="5" fill="#4EAA25"/>
  <text x="276" y="110" font-family="Consolas, Fira Code, monospace" font-size="12" fill="#F0F6FC">Batchfile</text>
</svg>
